<svg id="Layer_2" data-name="Layer 2" xmlns="http://www.w3.org/2000/svg" viewBox="0 0 79 100"><defs><style>.cls-1{fill:#fff;}.cls-2{fill:#757976;}</style></defs><title>AD</title><path class="cls-1" d="M51.11,82.16v0h0a3.1,3.1,0,0,0,2.74-1.61,1.19,1.19,0,0,1,.06.42c0,.08,0,.16,0,.24a.72.72,0,0,0,.72.72,2.53,2.53,0,0,0,.5,0,3.94,3.94,0,0,0,.46,0,.42.42,0,0,0,.34-.22v-.1s0-.11,0-.17c0-.73,0-1.47,0-2.21V73.77a.59.59,0,0,0-.24-.58l0,0h-1a5.4,5.4,0,0,0-.85,0h0l0,0a.72.72,0,0,0-.12.48v.11a13,13,0,0,0,0,1.66c0,.42.06.86.06,1.28a6.57,6.57,0,0,1-.36,2.45,1.78,1.78,0,0,1-.57.78,1.86,1.86,0,0,1-1.09.37,1.32,1.32,0,0,1-1.28-.86,4.44,4.44,0,0,1-.19-.62,11,11,0,0,1-.06-2.81v-.15a22.47,22.47,0,0,0,0-2.33.42.42,0,0,0-.15-.37l0,0h0A6.42,6.42,0,0,0,49,73.07a2.15,2.15,0,0,0-.85.17l-.05,0v.06s0,.06,0,.09a1,1,0,0,0,0,.17v5.94a2.12,2.12,0,0,0,.06.54,2.68,2.68,0,0,0,2,2,4,4,0,0,0,1,.12Z"/><path class="cls-1" d="M36.14,76.38a4.58,4.58,0,0,0-3.37-3.29,3.6,3.6,0,0,0-1-.15,2.28,2.28,0,0,0-2.07,1.3.31.31,0,0,0,0,.1l-.06.11,0-.1-.06-.4h0c0-.76,0-1.11,0-1.4,0-1-.06-1-.09-1.85a3.13,3.13,0,0,0-.06-.81.44.44,0,0,0-.42-.32c-.1,0-.21,0-.31,0h-.39a2.45,2.45,0,0,0-1,.22l0,0v0a.28.28,0,0,1,0,.09.49.49,0,0,0,0,.17c0,1.18.06,2.39.09,3.68a4.85,4.85,0,0,0,0,.66v.24q0,.43.06.87c0,.82,0,1.66.06,2.56v.05c0,.61,0,1.22,0,1.81v1.34a.8.8,0,0,0,.26.71l0,0h0a4.89,4.89,0,0,0,.54,0,5.07,5.07,0,0,0,.66,0h0l0,0a2.16,2.16,0,0,0,.19-.37,2.3,2.3,0,0,1,.33-.54.44.44,0,0,1,.09.11,2.47,2.47,0,0,0,1.51,1,3.65,3.65,0,0,0,.9.1h.44a3.81,3.81,0,0,0,3.17-1.81,4.7,4.7,0,0,0,.66-2.12c0-.1,0-.2,0-.3A4.69,4.69,0,0,0,36.14,76.38Zm-2.42,2.9a2.15,2.15,0,0,1-1.07,1.16,2.49,2.49,0,0,1-1,.22,2.1,2.1,0,0,1-2-1.4,2.23,2.23,0,0,1-.11-.73c0-.18,0-.38,0-.56v-.5a3.65,3.65,0,0,1,.11-1.23,2,2,0,0,1,1.59-1.47,1.72,1.72,0,0,1,.39,0,2.27,2.27,0,0,1,2,1.32,4.37,4.37,0,0,1,0,3.23Z"/><path class="cls-1" d="M21.08,70.31H19.24a.62.62,0,0,0-.6.36h0a6.18,6.18,0,0,0-.28.64c-.26.68-.52,1.37-.77,2l-.3.81-.52,1.41-2.2,5.91s0,0,0,.07a.34.34,0,0,0,0,.39l0,0h0a7.14,7.14,0,0,0,1.19.14,3.14,3.14,0,0,0,.95-.15l.05,0v0l.05-.12c0-.09.07-.19.11-.28s.13-.37.2-.56c.18-.48.36-1,.52-1.47a.58.58,0,0,1,.59-.44l.4,0h2.21c.39,0,.78,0,1.19.08l.38,0,.73,2,.28.76v0h.05a2.83,2.83,0,0,0,.9.14,7.72,7.72,0,0,0,.84-.06l.53,0h.1v-.09a1.37,1.37,0,0,0-.1-.41l0-.08-1.59-4.28c-.71-1.9-1.41-3.81-2.12-5.71-.09-.24-.19-.48-.31-.74a.67.67,0,0,0-.66-.41ZM18.5,77.22c.19-.56.36-1.13.52-1.68a25.55,25.55,0,0,1,1.1-3.22l.18.61c.19.62.36,1.21.55,1.78s.4,1.19.61,1.77l.24.7c0,.08-.1.08-.17.08H18.65l-.11,0Z"/><path class="cls-1" d="M60.94,71.09h-.08l-.32,0-.68,0a2.54,2.54,0,0,0-1,.24l0,0v0a2.55,2.55,0,0,0,0,.84,1.11,1.11,0,0,1,0,.48.68.68,0,0,1,0,.14c0,.15-.11.21-.27.21h-.6c-.28,0-.46.14-.47.35s0,.11,0,.17a2.74,2.74,0,0,0,0,1v0l0,0a.6.6,0,0,0,.29.08.94.94,0,0,0,.3-.07l.09,0a.81.81,0,0,1,.25,0c.14,0,.31,0,.43.34a1,1,0,0,1,.09.38,13.72,13.72,0,0,1,0,2l-.06.43a9.48,9.48,0,0,0-.1,1.69A2.67,2.67,0,0,0,61,82.05a4.09,4.09,0,0,0,.91.1,4.53,4.53,0,0,0,1.56-.29l.13,0a1,1,0,0,0,.55-.32l0,0v0c0-.19-.09-.38-.13-.57a7,7,0,0,0-.25-1l0-.11-.11.06-.18.09-.35.17a2.48,2.48,0,0,1-.56.2,1.1,1.1,0,0,1-.31,0,.88.88,0,0,1-.79-.46,1.84,1.84,0,0,1-.2-.47A4.28,4.28,0,0,1,61,78c0-.13,0-.26,0-.39a9,9,0,0,0-.09-1.55,2.34,2.34,0,0,1,0-.54c0-.39.2-.57.63-.67a3.67,3.67,0,0,1,.75-.08,3.85,3.85,0,0,1,.66.06h.21a.71.71,0,0,0,.53-.22l0,0v0a4,4,0,0,0,0-1.24v0l0,0a.67.67,0,0,0-.47-.15H62a2.17,2.17,0,0,1-.36,0c-.41-.07-.58-.24-.61-.61,0-.13,0-.25,0-.38v-.28a1.21,1.21,0,0,1,0-.19,1.56,1.56,0,0,0,0-.48l0-.08Z"/><path class="cls-2" d="M51.11,32v0h0a3.1,3.1,0,0,0,2.74-1.61,1.22,1.22,0,0,1,.06.42c0,.08,0,.16,0,.24a.72.72,0,0,0,.72.72,2.53,2.53,0,0,0,.5,0,3.94,3.94,0,0,0,.46,0,.42.42,0,0,0,.34-.22v-.1c0-.05,0-.11,0-.17,0-.73,0-1.47,0-2.21V23.63a.6.6,0,0,0-.24-.59l0,0h-1a5.4,5.4,0,0,0-.85.05h0l0,0a.72.72,0,0,0-.12.48v.11a13,13,0,0,0,0,1.66c0,.42.06.86.06,1.28a6.57,6.57,0,0,1-.36,2.45,1.78,1.78,0,0,1-.57.78,1.86,1.86,0,0,1-1.09.37,1.32,1.32,0,0,1-1.28-.86,4.44,4.44,0,0,1-.19-.62,11,11,0,0,1-.06-2.81v-.15a22.47,22.47,0,0,0,0-2.33.42.42,0,0,0-.15-.37l0,0h0A6.42,6.42,0,0,0,49,22.92a2.15,2.15,0,0,0-.85.17l-.05,0v.06s0,.06,0,.09a1,1,0,0,0,0,.17v5.94a2.12,2.12,0,0,0,.06.54,2.68,2.68,0,0,0,2,2,4,4,0,0,0,1,.12Z"/><path class="cls-2" d="M36.14,26.23a4.58,4.58,0,0,0-3.37-3.29,3.6,3.6,0,0,0-1-.15,2.28,2.28,0,0,0-2.07,1.3.31.31,0,0,0,0,.1l-.06.11,0-.1-.06-.4h0c0-.76,0-1.11,0-1.4,0-1-.06-1-.09-1.85a3.13,3.13,0,0,0-.06-.81.44.44,0,0,0-.42-.32h-.7a2.45,2.45,0,0,0-1,.22l0,0v.05a.28.28,0,0,1,0,.09.49.49,0,0,0,0,.17c0,1.18.06,2.39.09,3.68a4.85,4.85,0,0,0,0,.66v.24q0,.43.06.87c0,.82,0,1.66.06,2.56V28c0,.61,0,1.22,0,1.81v1.34a.8.8,0,0,0,.26.71l0,0h0a4.89,4.89,0,0,0,.54,0,5.07,5.07,0,0,0,.66,0h0l0,0a1.85,1.85,0,0,0,.19-.37,2.3,2.3,0,0,1,.33-.54.44.44,0,0,1,.09.11A2.47,2.47,0,0,0,31,32a3.65,3.65,0,0,0,.9.1h.44a3.81,3.81,0,0,0,3.17-1.81,4.7,4.7,0,0,0,.66-2.12c0-.1,0-.2,0-.3A4.69,4.69,0,0,0,36.14,26.23Zm-2.42,2.9a2.15,2.15,0,0,1-1.07,1.16,2.49,2.49,0,0,1-1,.22,2.1,2.1,0,0,1-2-1.4,2.23,2.23,0,0,1-.11-.73c0-.18,0-.38,0-.56v-.5a3.65,3.65,0,0,1,.11-1.23,2,2,0,0,1,1.59-1.47,1.72,1.72,0,0,1,.39,0,2.27,2.27,0,0,1,2,1.32,4.37,4.37,0,0,1,0,3.23Z"/><path class="cls-2" d="M21.08,20.16H19.24a.62.62,0,0,0-.6.36h0a6.18,6.18,0,0,0-.28.64c-.26.68-.52,1.37-.77,2.05l-.3.81-.52,1.41-2.2,5.91s0,0,0,.07a.34.34,0,0,0,0,.39l0,0h0a7.14,7.14,0,0,0,1.19.14,3.14,3.14,0,0,0,.95-.15l.05,0v0l.05-.12c0-.09.07-.19.11-.28s.13-.37.2-.56c.18-.48.36-1,.52-1.47a.58.58,0,0,1,.59-.44l.4,0h2.21c.39,0,.78,0,1.19.08l.38,0,.73,2,.28.76v.05h.05a2.83,2.83,0,0,0,.9.14,7.72,7.72,0,0,0,.84-.06l.53-.05h.1v-.09a1.37,1.37,0,0,0-.1-.41l0-.08L24.17,27c-.71-1.9-1.41-3.81-2.12-5.71-.09-.24-.19-.48-.31-.74a.67.67,0,0,0-.66-.41ZM18.5,27.07c.19-.56.36-1.13.52-1.68a25.55,25.55,0,0,1,1.1-3.22l.18.61c.19.62.36,1.21.55,1.78s.4,1.2.61,1.77l.24.7c0,.08-.1.08-.17.08H18.65l-.11,0Z"/><path class="cls-2" d="M60.94,20.94h-.08l-.32,0-.68,0a2.54,2.54,0,0,0-1,.24l0,0v0a2.55,2.55,0,0,0,0,.84,1.11,1.11,0,0,1,0,.48.68.68,0,0,1,0,.14c0,.15-.11.21-.27.21h-.6c-.28,0-.46.14-.47.35,0,.06,0,.11,0,.17a2.74,2.74,0,0,0,0,1v0l0,0a.6.6,0,0,0,.29.08.94.94,0,0,0,.3-.07l.09,0a.81.81,0,0,1,.25,0c.14,0,.31,0,.43.34a1,1,0,0,1,.09.38,13.72,13.72,0,0,1,0,2.05l-.06.43a9.48,9.48,0,0,0-.1,1.69A2.67,2.67,0,0,0,61,31.9a4.09,4.09,0,0,0,.91.1,4.53,4.53,0,0,0,1.56-.29l.13,0a1,1,0,0,0,.55-.32l0,0v0c0-.19-.09-.38-.13-.57a7,7,0,0,0-.25-.95l0-.11-.11.06-.18.09-.35.17a2.48,2.48,0,0,1-.56.2,1.1,1.1,0,0,1-.31,0,.88.88,0,0,1-.79-.46,1.84,1.84,0,0,1-.2-.47,4.28,4.28,0,0,1-.2-1.41c0-.13,0-.26,0-.39a9,9,0,0,0-.09-1.55,2.34,2.34,0,0,1,0-.54c0-.39.2-.57.63-.67a3.67,3.67,0,0,1,.75-.08,3.85,3.85,0,0,1,.66.06l.21,0a.72.72,0,0,0,.53-.23l0,0v0a4,4,0,0,0,0-1.24v0l0,0a.67.67,0,0,0-.47-.15H62a2.17,2.17,0,0,1-.36,0c-.41-.07-.58-.24-.61-.61,0-.13,0-.25,0-.38v-.28a1.21,1.21,0,0,1,0-.19A1.56,1.56,0,0,0,61,21l0-.08Z"/><path class="cls-1" d="M42.37,73.05c-3.17-.09-4.83,1.52-4.83,4.69,0,2.86,1.66,4.58,4.43,4.6s4.4-1.68,4.57-5A4.12,4.12,0,0,0,42.37,73.05Zm0,7.54a2.54,2.54,0,0,1-2.9-2.86c0-1.82.95-2.87,2.58-2.9a2.66,2.66,0,0,1,2.75,2.71A2.9,2.9,0,0,1,42.35,80.59Z"/><path class="cls-2" d="M42.37,22.9c-3.17-.09-4.83,1.52-4.83,4.69,0,2.86,1.66,4.58,4.43,4.6s4.4-1.68,4.57-4.95A4.12,4.12,0,0,0,42.37,22.9Zm0,7.54a2.54,2.54,0,0,1-2.9-2.86c0-1.82.95-2.87,2.58-2.9a2.66,2.66,0,0,1,2.75,2.71A2.9,2.9,0,0,1,42.35,30.44Z"/></svg>