<svg id="Layer_2" data-name="Layer 2" xmlns="http://www.w3.org/2000/svg" viewBox="0 0 88 100"><defs><style>.cls-1{fill:#fff;}.cls-2{fill:#757976;}</style></defs><title>AD-křivky-menu</title><path class="cls-1" d="M54.92,73a3.54,3.54,0,0,0-.45,0,3.78,3.78,0,0,0-3.17,1.8A4.72,4.72,0,0,0,50.65,77c0,.09,0,.19,0,.29a4.93,4.93,0,0,0,.08,1.67,4.58,4.58,0,0,0,3.37,3.29,3.6,3.6,0,0,0,1,.15,2.3,2.3,0,0,0,2.08-1.29l0-.11a.6.6,0,0,1,.06-.11V81c0,.22.06.43.1.64.06.38.19.49.6.51h1.1a.73.73,0,0,0,.5-.21l0,0v0a4.2,4.2,0,0,0,0-1,1.93,1.93,0,0,1,0-.24c0-.35,0-.7-.06-1s-.07-.82-.07-1.23c0-1,0-2,0-3V74a.82.82,0,0,0-.25-.71l0,0h0a4.75,4.75,0,0,0-.54,0c-.21,0-.43,0-.65,0H58l0,0a3.24,3.24,0,0,0-.19.37,1.87,1.87,0,0,1-.33.54l-.09-.11a2.47,2.47,0,0,0-1.51-1,3.51,3.51,0,0,0-.89-.1Zm.24,7.57a2.28,2.28,0,0,1-2-1.33,4.31,4.31,0,0,1-.3-1.27,4.05,4.05,0,0,1,.3-2,2.06,2.06,0,0,1,1.07-1.15,2.3,2.3,0,0,1,1-.23,2.11,2.11,0,0,1,2,1.41,2.14,2.14,0,0,1,.11.72v.81a2.09,2.09,0,0,0,0,.25,4.24,4.24,0,0,1-.11,1.23,2,2,0,0,1-1.59,1.47,1.83,1.83,0,0,1-.4,0Z"/><path class="cls-1" d="M39.85,73.07v0h0a3.15,3.15,0,0,0-2.1.8,3,3,0,0,0-.65.82,1.51,1.51,0,0,1-.05-.42c0-.08,0-.16,0-.24-.06-.45-.24-.64-.72-.73a3.62,3.62,0,0,0-.5,0l-.47,0a.4.4,0,0,0-.33.22v.1s0,.11,0,.16c0,.74,0,1.48,0,2.21v5.48a.61.61,0,0,0,.24.59l0,0h.27l.68,0a7.12,7.12,0,0,0,.86,0h0l0,0a.79.79,0,0,0,.12-.49v-.1a13.25,13.25,0,0,0,0-1.67c0-.42-.06-.85-.06-1.28A6.52,6.52,0,0,1,37.51,76a1.73,1.73,0,0,1,.57-.78,1.76,1.76,0,0,1,1.08-.37,1.33,1.33,0,0,1,1.29.85,4.19,4.19,0,0,1,.19.63,10.58,10.58,0,0,1,0,2.81v.15c0,.76-.06,1.54,0,2.33a.43.43,0,0,0,.15.37l0,0h0a6.18,6.18,0,0,0,1.14.13,2.17,2.17,0,0,0,.85-.16l.05,0v-.06a.28.28,0,0,1,0-.09c0-.06,0-.12,0-.17V75.72a2.06,2.06,0,0,0-.06-.54,2.68,2.68,0,0,0-2.05-2,4.09,4.09,0,0,0-.95-.13Z"/><path class="cls-1" d="M72.85,71.09h-.09l-.31,0-.69,0a2.46,2.46,0,0,0-1,.24l0,0v0a2.1,2.1,0,0,0,0,.84,1.11,1.11,0,0,1,0,.48l0,.14c0,.15-.1.21-.27.21h-.6c-.27,0-.45.14-.47.35a1,1,0,0,1,0,.17,2.74,2.74,0,0,0,0,1l0,0,0,0a.63.63,0,0,0,.29.08.94.94,0,0,0,.3-.07l.09,0a.87.87,0,0,1,.26,0c.13,0,.3,0,.42.34a1,1,0,0,1,.09.38,13.72,13.72,0,0,1,0,2c0,.14,0,.28,0,.43a8.63,8.63,0,0,0-.1,1.69,2.66,2.66,0,0,0,2.23,2.51,4,4,0,0,0,.91.1,4.51,4.51,0,0,0,1.55-.29l.13,0a.93.93,0,0,0,.43-.23v-.31c0-.26,0-.42-.08-.61a5.13,5.13,0,0,0-.19-.7l-.07,0h-.09c-.06,0-.12,0-.18.06l-.36.17a2.15,2.15,0,0,1-.51.15,1.22,1.22,0,0,1-.32,0,.88.88,0,0,1-.79-.46,2.28,2.28,0,0,1-.2-.47,4.57,4.57,0,0,1-.2-1.41v-.39a9,9,0,0,0-.08-1.55,2.27,2.27,0,0,1,0-.54c0-.39.2-.57.63-.67a3.67,3.67,0,0,1,.75-.08,3.85,3.85,0,0,1,.66.06h.21a.71.71,0,0,0,.53-.22l0,0v0a4,4,0,0,0,0-1.24v0l0,0a.66.66,0,0,0-.46-.15H73.88a2,2,0,0,1-.35,0c-.42-.07-.59-.24-.61-.61,0-.13,0-.25,0-.38v-.47a1.3,1.3,0,0,0,0-.48l0-.08Z"/><path class="cls-1" d="M46.94,71.09h-.08l-.32,0-.68,0a2.54,2.54,0,0,0-1,.24l0,0v0a2.55,2.55,0,0,0,0,.84,1.11,1.11,0,0,1,0,.48s0,.09,0,.14-.11.21-.28.21h-.59c-.28,0-.46.14-.47.35s0,.11,0,.17a2.74,2.74,0,0,0,0,1v0l0,0a.6.6,0,0,0,.29.08.94.94,0,0,0,.3-.07l.09,0a.81.81,0,0,1,.25,0c.14,0,.31,0,.43.34a1,1,0,0,1,.09.38,13.72,13.72,0,0,1,0,2l-.06.43a9.48,9.48,0,0,0-.1,1.69A2.67,2.67,0,0,0,47,82.05a4.09,4.09,0,0,0,.91.1,4.53,4.53,0,0,0,1.56-.29l.13,0a1,1,0,0,0,.54-.32l0,0v0c-.05-.19-.09-.38-.13-.57a7,7,0,0,0-.25-1l0-.11-.11.06-.18.09-.35.17a2.48,2.48,0,0,1-.56.2,1.1,1.1,0,0,1-.31,0,.88.88,0,0,1-.79-.46,1.84,1.84,0,0,1-.2-.47A4.28,4.28,0,0,1,47,78c0-.13,0-.26,0-.39a9,9,0,0,0-.09-1.55,2.34,2.34,0,0,1,0-.54c0-.39.2-.57.63-.67a3.67,3.67,0,0,1,.75-.08,3.85,3.85,0,0,1,.66.06h.21a.71.71,0,0,0,.53-.22l0,0v0a4,4,0,0,0,0-1.24v0l0,0a.67.67,0,0,0-.47-.15H48a2.17,2.17,0,0,1-.36,0c-.41-.07-.58-.24-.61-.61,0-.13,0-.25,0-.38v-.28a1.21,1.21,0,0,1,0-.19,1.56,1.56,0,0,0,0-.48l0-.08Z"/><path class="cls-1" d="M66.79,79.21a.15.15,0,0,0-.06.09,1.57,1.57,0,0,1-.29.52,1.78,1.78,0,0,1-1.08.66l-.38,0a2.26,2.26,0,0,1-2-1.25c0-.06,0-.13-.08-.19h0a3.22,3.22,0,0,1-.25-1.19,7.14,7.14,0,0,1,.12-1h0a1.7,1.7,0,0,1,.1-.32,3,3,0,0,1,1.5-1.77,2.54,2.54,0,0,1,.94-.19,1.44,1.44,0,0,1,1.27.83.5.5,0,0,1,0,.13,1,1,0,0,0,.21.33l0,0H67a1.93,1.93,0,0,0,.53-.11l.26-.08.59-.16.23-.07h0l0,0a.42.42,0,0,0,0-.42h0a3.17,3.17,0,0,0-2.53-2,4.68,4.68,0,0,0-1-.11A5.47,5.47,0,0,0,63,73.4a3.65,3.65,0,0,0-2.15,2.13,5.36,5.36,0,0,0,.31,4.68,4.1,4.1,0,0,0,3.71,2.05,5.39,5.39,0,0,0,.88-.07,3.88,3.88,0,0,0,1.26-.4,3.11,3.11,0,0,0,1.49-1.44c.14-.35.17-.43.21-.56a.19.19,0,0,0,0-.13s-.15-.06-.15-.06L67,79.21S66.84,79.18,66.79,79.21Z"/><path class="cls-1" d="M22,79.08s-.15.21-.4.51a2.79,2.79,0,0,1-1.54.79l-.47,0a3.4,3.4,0,0,1-2.76-1.72,4.62,4.62,0,0,1-.48-1.76,5,5,0,0,1,.26-1.86,3.53,3.53,0,0,1,1.86-2,4.07,4.07,0,0,1,1.33-.26A3.17,3.17,0,0,1,22,74a2.85,2.85,0,0,1,.21.32l.1.06h.08a1.24,1.24,0,0,0,.51-.13l.47-.14a3.61,3.61,0,0,1,.44-.15c.09,0,.4-.2.4-.2a.16.16,0,0,0,0-.2l-.06-.15A4.06,4.06,0,0,0,21.1,71.1,6.18,6.18,0,0,0,19.82,71a6.61,6.61,0,0,0-2.55.52,4.46,4.46,0,0,0-2.64,2.62A6.58,6.58,0,0,0,15,79.86a5,5,0,0,0,4.54,2.52,6.77,6.77,0,0,0,1.09-.09,4.73,4.73,0,0,0,1.54-.5A3.91,3.91,0,0,0,24,80c.13-.29.07-.36.06-.4s-.16-.09-.16-.09S22.34,79,22.23,79A.37.37,0,0,0,22,79.08Z"/><path class="cls-2" d="M54.92,22.73l-.45,0a3.78,3.78,0,0,0-3.17,1.81,4.68,4.68,0,0,0-.65,2.12c0,.1,0,.2,0,.3a5,5,0,0,0,.08,1.67,4.59,4.59,0,0,0,3.37,3.29,3.6,3.6,0,0,0,1,.15,2.31,2.31,0,0,0,2.08-1.3l0-.1a.39.39,0,0,1,.06-.11v.1c0,.22.06.43.1.64.06.37.19.48.6.5h1.1a.68.68,0,0,0,.5-.2l0,0v0a4.31,4.31,0,0,0,0-1,1.93,1.93,0,0,1,0-.24c0-.34,0-.69-.06-1s-.07-.82-.07-1.24c0-1,0-2,0-3V23.7a.84.84,0,0,0-.25-.72l0,0h0a4.75,4.75,0,0,0-.54,0A4.82,4.82,0,0,0,58,23H58l0,0a3.13,3.13,0,0,0-.19.36,1.92,1.92,0,0,1-.33.55l-.09-.11a2.43,2.43,0,0,0-1.51-1,3.5,3.5,0,0,0-.89-.11Zm.24,7.57a2.29,2.29,0,0,1-2-1.32,4.39,4.39,0,0,1-.3-1.27,4.05,4.05,0,0,1,.3-2,2,2,0,0,1,1.07-1.16,2.28,2.28,0,0,1,1-.22,2.1,2.1,0,0,1,2,1.4,2.18,2.18,0,0,1,.11.72v.81a2.26,2.26,0,0,0,0,.26,4.24,4.24,0,0,1-.11,1.23,2,2,0,0,1-1.59,1.47,1.81,1.81,0,0,1-.4,0Z"/><path class="cls-2" d="M39.85,22.79v0h0a3.15,3.15,0,0,0-2.1.8,3,3,0,0,0-.65.82,1.54,1.54,0,0,1-.05-.43c0-.07,0-.15,0-.23-.06-.45-.24-.64-.72-.73a2.53,2.53,0,0,0-.5,0l-.47,0a.45.45,0,0,0-.33.22v.1c0,.05,0,.11,0,.17,0,.74,0,1.47,0,2.21v5.48a.59.59,0,0,0,.24.58l0,0h1a7.31,7.31,0,0,0,.86,0h0l0,0a.76.76,0,0,0,.12-.48v-.11a13.1,13.1,0,0,0,0-1.66c0-.42-.06-.85-.06-1.28a6.6,6.6,0,0,1,.36-2.45,1.76,1.76,0,0,1,1.65-1.15,1.34,1.34,0,0,1,1.29.86,4.44,4.44,0,0,1,.19.62,10.59,10.59,0,0,1,0,2.81V29c0,.76-.06,1.55,0,2.33a.45.45,0,0,0,.15.38h.05a7.22,7.22,0,0,0,1.14.13,2.18,2.18,0,0,0,.85-.17l.05,0v-.06a.28.28,0,0,1,0-.09c0-.06,0-.11,0-.17V25.43a2.17,2.17,0,0,0-.06-.54,2.67,2.67,0,0,0-2.05-2,3.61,3.61,0,0,0-.95-.13Z"/><path class="cls-2" d="M72.85,20.81h-.09l-.31,0-.69,0a2.46,2.46,0,0,0-1,.24l0,0v.05a2,2,0,0,0,0,.83,1.16,1.16,0,0,1,0,.49l0,.13c0,.15-.1.22-.27.22h-.6c-.27,0-.45.14-.47.35a.86.86,0,0,1,0,.16,2.79,2.79,0,0,0,0,1l0,0,0,0a.63.63,0,0,0,.29.08.94.94,0,0,0,.3-.06l.09,0a.91.91,0,0,1,.26-.05c.13,0,.3,0,.42.34a1.08,1.08,0,0,1,.09.38,13.82,13.82,0,0,1,0,2.06c0,.14,0,.28,0,.42a8.78,8.78,0,0,0-.1,1.7,2.67,2.67,0,0,0,2.23,2.51,4.6,4.6,0,0,0,.91.09,4.5,4.5,0,0,0,1.55-.28l.13,0a.93.93,0,0,0,.43-.23V31c0-.26,0-.41-.08-.6a5.13,5.13,0,0,0-.19-.7l-.07,0h-.09l-.18.07-.36.17a2.74,2.74,0,0,1-.51.15,1.87,1.87,0,0,1-.32,0,.87.87,0,0,1-.79-.47,2.47,2.47,0,0,1-.2-.46,4.66,4.66,0,0,1-.2-1.41v-.39a9,9,0,0,0-.08-1.55,2.36,2.36,0,0,1,0-.55c0-.38.2-.56.63-.66a3.08,3.08,0,0,1,.75-.08,5.14,5.14,0,0,1,.66,0l.21,0a.71.71,0,0,0,.53-.22l0,0v0a4,4,0,0,0,0-1.25v0l0,0a.66.66,0,0,0-.46-.15H73.88c-.12,0-.24,0-.35,0-.42-.06-.59-.23-.61-.61,0-.12,0-.25,0-.37v-.48a1.34,1.34,0,0,0,0-.48l0-.07Z"/><path class="cls-2" d="M46.94,20.81h-.08l-.32,0-.68,0a2.54,2.54,0,0,0-1,.24l0,0v.05a2.47,2.47,0,0,0,0,.83,1.16,1.16,0,0,1,0,.49s0,.09,0,.13-.11.22-.28.22h-.59c-.28,0-.46.14-.47.35,0,.05,0,.11,0,.16a2.79,2.79,0,0,0,0,1v0l0,0a.6.6,0,0,0,.29.08.94.94,0,0,0,.3-.06.16.16,0,0,1,.09,0,.85.85,0,0,1,.25-.05c.14,0,.31,0,.43.34a1.08,1.08,0,0,1,.09.38,13.82,13.82,0,0,1,0,2.06l-.06.42a9.65,9.65,0,0,0-.1,1.7A2.68,2.68,0,0,0,47,31.77a4.76,4.76,0,0,0,.91.09,4.51,4.51,0,0,0,1.56-.28l.13,0a1,1,0,0,0,.54-.31l0,0v0c-.05-.18-.09-.38-.13-.56a7,7,0,0,0-.25-.95l0-.11-.11.05-.18.09-.35.17a3.09,3.09,0,0,1-.56.21,1.65,1.65,0,0,1-.31,0,.87.87,0,0,1-.79-.47,1.94,1.94,0,0,1-.2-.46,4.37,4.37,0,0,1-.2-1.41c0-.13,0-.26,0-.39a9,9,0,0,0-.09-1.55,2.43,2.43,0,0,1,0-.55c0-.38.2-.56.63-.66a3.08,3.08,0,0,1,.75-.08,5.14,5.14,0,0,1,.66,0l.21,0a.71.71,0,0,0,.53-.22l0,0v0a4,4,0,0,0,0-1.25v0l0,0a.67.67,0,0,0-.47-.15H48l-.36,0c-.41-.06-.58-.23-.61-.61,0-.12,0-.25,0-.37v-.28a1.34,1.34,0,0,1,0-.2,1.61,1.61,0,0,0,0-.48l0-.07Z"/><path class="cls-2" d="M66.79,28.93a.16.16,0,0,0-.06.08,1.52,1.52,0,0,1-.29.53,1.82,1.82,0,0,1-1.08.66l-.38,0A2.25,2.25,0,0,1,63,29l-.08-.18h0a3.29,3.29,0,0,1-.25-1.19,7.14,7.14,0,0,1,.12-1h0a2.07,2.07,0,0,1,.1-.33,2.91,2.91,0,0,1,1.5-1.76,2.38,2.38,0,0,1,.94-.2,1.46,1.46,0,0,1,1.27.83.69.69,0,0,1,0,.13.9.9,0,0,0,.21.34l0,0H67a1.63,1.63,0,0,0,.53-.12l.26-.07c.21,0,.4-.11.59-.17l.23-.06,0,0,0,0a.4.4,0,0,0,0-.41v0a3.2,3.2,0,0,0-2.53-2,5.15,5.15,0,0,0-3.12.32,3.62,3.62,0,0,0-2.15,2.13,5.37,5.37,0,0,0,.31,4.68A4.12,4.12,0,0,0,64.88,32a6.79,6.79,0,0,0,.88-.07A4.15,4.15,0,0,0,67,31.5a3.07,3.07,0,0,0,1.49-1.44,5.49,5.49,0,0,0,.21-.56.17.17,0,0,0,0-.12s-.15-.07-.15-.07L67,28.93S66.84,28.89,66.79,28.93Z"/><path class="cls-2" d="M22,28.8s-.15.2-.4.51a2.78,2.78,0,0,1-1.54.78,2.56,2.56,0,0,1-.47,0,3.39,3.39,0,0,1-2.76-1.73,4.56,4.56,0,0,1-.48-1.75,5,5,0,0,1,.26-1.86,3.53,3.53,0,0,1,1.86-2,3.85,3.85,0,0,1,1.33-.27A3.18,3.18,0,0,1,22,23.72c.07.1.18.25.21.31l.1.06h.08a1.24,1.24,0,0,0,.51-.13l.47-.15c.15-.05.2-.08.44-.15.09,0,.4-.2.4-.2a.14.14,0,0,0,0-.19l-.06-.16a4.05,4.05,0,0,0-3.06-2.3,6.18,6.18,0,0,0-1.28-.13,6.61,6.61,0,0,0-2.55.52,4.46,4.46,0,0,0-2.64,2.62A6.58,6.58,0,0,0,15,29.58a5,5,0,0,0,4.54,2.51A8.11,8.11,0,0,0,20.65,32a5,5,0,0,0,1.54-.5A4,4,0,0,0,24,29.74c.13-.29.07-.37.06-.41s-.16-.09-.16-.09-1.59-.49-1.7-.5A.32.32,0,0,0,22,28.8Z"/><path class="cls-2" d="M29.46,22.77c-3.17-.1-4.83,1.51-4.82,4.69,0,2.86,1.65,4.57,4.42,4.59s4.4-1.67,4.58-4.94A4.12,4.12,0,0,0,29.46,22.77Zm0,7.53c-1.87.07-2.89-.94-2.89-2.86s.94-2.87,2.57-2.89a2.65,2.65,0,0,1,2.75,2.7A2.89,2.89,0,0,1,29.44,30.3Z"/><path class="cls-1" d="M29.46,73.05c-3.17-.09-4.83,1.52-4.82,4.69,0,2.86,1.65,4.58,4.42,4.6s4.4-1.68,4.58-5A4.13,4.13,0,0,0,29.46,73.05Zm0,7.54a2.54,2.54,0,0,1-2.89-2.86c0-1.82.94-2.87,2.57-2.9a2.66,2.66,0,0,1,2.75,2.71A2.89,2.89,0,0,1,29.44,80.59Z"/></svg>