<svg id="Layer_2" data-name="Layer 2" xmlns="http://www.w3.org/2000/svg" viewBox="0 0 85 100"><defs><style>.cls-1{fill:#fff;}.cls-2{fill:#757976;}</style></defs><title>AD</title><path class="cls-1" d="M49.07,73.05h0a3.14,3.14,0,0,0-2.81,1.51l0,.08s0,.09-.06.11v0c0-.11-.07-.21-.12-.32a2.33,2.33,0,0,0-1.58-1.26,3.1,3.1,0,0,0-.76-.09A3.39,3.39,0,0,0,41,74.39l-.16.23a2.31,2.31,0,0,1-.06-.52,1.41,1.41,0,0,0-.18-.77l0,0h0a6.64,6.64,0,0,0-.87-.07,3.11,3.11,0,0,0-.92.12h0l0,0a2.12,2.12,0,0,0-.08,1c.13,1.38.12,2.78.12,4.13v2.57a1.84,1.84,0,0,0,.08.64.56.56,0,0,0,.59.46h0c.33,0,.66,0,1-.07l.39,0h.05l0,0a.92.92,0,0,0,.12-.55V78.69a9.18,9.18,0,0,1,.32-2.42,2.32,2.32,0,0,1,.54-1,1.28,1.28,0,0,1,.92-.38,1.19,1.19,0,0,1,1,.48,2.53,2.53,0,0,1,.41.94,13.18,13.18,0,0,1,.16,4v.13a1.15,1.15,0,0,0,0,.19,8.11,8.11,0,0,0,0,1.31V82l.06,0a3.46,3.46,0,0,0,1,.18,2.2,2.2,0,0,0,.92-.19l0,0v0a.92.92,0,0,0,.09-.51V78.19a7.49,7.49,0,0,1,.07-1.25A3.56,3.56,0,0,1,47,75.45a1.32,1.32,0,0,1,.9-.62l.28,0a1.33,1.33,0,0,1,1.35,1,4.71,4.71,0,0,1,.17,1.71,37.56,37.56,0,0,0-.07,3.91v.07a.75.75,0,0,0,.14.53l0,0h.41c.22,0,.44,0,.67,0A4,4,0,0,0,51.6,82h0l0,0a1.53,1.53,0,0,0,.23-.84v-.43a10.67,10.67,0,0,1,0-1.13A20.7,20.7,0,0,0,52,76.4a4.44,4.44,0,0,0-.64-2.23,2.31,2.31,0,0,0-1.42-1,3.52,3.52,0,0,0-.87-.1Z"/><path class="cls-1" d="M57.92,73.05a4.1,4.1,0,0,0-3.71,2,5.33,5.33,0,0,0-.31,4.68,3.65,3.65,0,0,0,2.15,2.13,5.45,5.45,0,0,0,2.07.43,5.35,5.35,0,0,0,1.05-.11,3.2,3.2,0,0,0,2.53-2v0a.4.4,0,0,0,0-.42l0,0h0l-.23-.07-.59-.16-.26-.08a1.92,1.92,0,0,0-.54-.11h-.1l0,0a.82.82,0,0,0-.21.33.59.59,0,0,1-.06.14,1.42,1.42,0,0,1-1.26.82,1.86,1.86,0,0,1-.82-.2,3.13,3.13,0,0,1-1.63-1.76,1,1,0,0,1-.09-.6h5.9l0,0a.91.91,0,0,0,.15-.61v-.08a7.82,7.82,0,0,0-.45-2.25v0a2.51,2.51,0,0,0-1.38-1.52,3.75,3.75,0,0,0-1.25-.41,5.39,5.39,0,0,0-.88-.07Zm-2.07,3.6a1.33,1.33,0,0,1,.17-.6,2.26,2.26,0,0,1,2-1.25l.38,0a1.52,1.52,0,0,1,1,.66,1.37,1.37,0,0,1,.17,1.16Z"/><path class="cls-1" d="M31.66,73a3.54,3.54,0,0,0-.45,0A3.78,3.78,0,0,0,28,74.84,4.72,4.72,0,0,0,27.39,77c0,.09,0,.19,0,.29a4.93,4.93,0,0,0,.08,1.67,4.58,4.58,0,0,0,3.37,3.29,3.6,3.6,0,0,0,1,.15,2.27,2.27,0,0,0,2.07-1.29l.06-.11a.54.54,0,0,1,0-.11l0,.1c0,.22.06.43.1.64,0,.38.19.49.6.51h1.1a.75.75,0,0,0,.5-.21l0,0v0a4.2,4.2,0,0,0,.05-1,1.93,1.93,0,0,1,0-.24c0-.35,0-.7-.06-1s-.07-.82-.07-1.23c0-1,0-2,0-3V74a.8.8,0,0,0-.26-.71l0,0h0a4.75,4.75,0,0,0-.54,0c-.21,0-.43,0-.65,0h-.06l0,0a3.24,3.24,0,0,0-.19.37,1.87,1.87,0,0,1-.33.54.44.44,0,0,1-.09-.11,2.47,2.47,0,0,0-1.51-1,3.51,3.51,0,0,0-.89-.1Zm.24,7.57a2.28,2.28,0,0,1-2-1.33,4.31,4.31,0,0,1-.3-1.27,4.17,4.17,0,0,1,.29-2A2.11,2.11,0,0,1,31,74.88a2.3,2.3,0,0,1,1-.23,2.11,2.11,0,0,1,2,1.41,2.14,2.14,0,0,1,.11.72v.81a2.09,2.09,0,0,0,0,.25,4.24,4.24,0,0,1-.11,1.23,2,2,0,0,1-1.6,1.47,1.67,1.67,0,0,1-.39,0Z"/><path class="cls-1" d="M67.22,72.93a5.17,5.17,0,0,0-2.65.73,3.37,3.37,0,0,0-1.06.91,2,2,0,0,0-.28,1.86,2.34,2.34,0,0,0,1.33,1.48,8.54,8.54,0,0,0,1.16.34l.31.07a12,12,0,0,1,1.18.31,2,2,0,0,1,.81.44,1,1,0,0,1,.34.88.94.94,0,0,1-.54.64,2.28,2.28,0,0,1-.95.21,2,2,0,0,1-1.87-1l0,0a.41.41,0,0,0-.27-.3h-.06l-.22,0-.61.14-.26.08c-.47.18-.6.43-.49.87a1.82,1.82,0,0,0,.15.34A2.45,2.45,0,0,0,64.52,82a4.75,4.75,0,0,0,1.78.32c.25,0,.5,0,.78,0a5.44,5.44,0,0,0,2.7-1,1.91,1.91,0,0,0,.86-2.22,2.15,2.15,0,0,0-1.34-1.56l-.4-.15-.67-.24-.3-.11a12.24,12.24,0,0,1-1.52-.59,2.69,2.69,0,0,1-.66-.41.65.65,0,0,1-.08-1,1.37,1.37,0,0,1,1.07-.46,1.81,1.81,0,0,1,.61.1,1.63,1.63,0,0,1,1,1.07l0,.06h.29a6.61,6.61,0,0,0,1.68-.27l.08,0v-.08a2.44,2.44,0,0,0-1.88-2.33,6.21,6.21,0,0,0-1.34-.16Z"/><path class="cls-1" d="M25.55,76.49a.29.29,0,0,0,0-.09h0v0a.31.31,0,0,0-.06-.22l0,0h0c-.16,0-2.06-.1-4.11-.1-.11,0-.22,0-.27.12a.6.6,0,0,0,0,.25l0,.79a1.17,1.17,0,0,0,.05.37.49.49,0,0,0,.22.16,10.14,10.14,0,0,0,1.32,0H23a1.88,1.88,0,0,1,.49.06,2.69,2.69,0,0,1-.84,1.57,2.86,2.86,0,0,1-1.65.73,3.89,3.89,0,0,1-.47,0,3.36,3.36,0,0,1-2.76-1.81,4.65,4.65,0,0,1-.48-1.82,5.21,5.21,0,0,1,.26-1.94,3.54,3.54,0,0,1,1.86-2,3.65,3.65,0,0,1,1.33-.28,3.15,3.15,0,0,1,2.17,1.21c.06.1.18.25.21.32l.1.07h.08a1.28,1.28,0,0,0,.51-.13l.47-.16c.15,0,.2-.08.43-.15a3.64,3.64,0,0,0,.41-.21.18.18,0,0,0,0-.21l-.06-.16A4.12,4.12,0,0,0,22,70.44a6.29,6.29,0,0,0-1.29-.14,6.46,6.46,0,0,0-2.54.55,4.56,4.56,0,0,0-2.64,2.73,7.07,7.07,0,0,0,.38,6,5,5,0,0,0,4.55,2.62,6.77,6.77,0,0,0,1.09-.09,3.86,3.86,0,0,0,1.66-.69,5.21,5.21,0,0,0,.78-.83h0c0,.19-.1.72-.1.91s0,.18,0,.28a.16.16,0,0,0,0,.07.05.05,0,0,0,0,0v0h0a3.09,3.09,0,0,0,.65.09l.43,0a2.51,2.51,0,0,1,.27,0h0a.22.22,0,0,0,.12-.22h0C25.64,79.44,25.55,78.05,25.55,76.49Z"/><path class="cls-2" d="M49.07,22.69h0a3.16,3.16,0,0,0-2.81,1.51.36.36,0,0,0,0,.09.29.29,0,0,1-.06.11v0c0-.1-.07-.21-.12-.31a2.31,2.31,0,0,0-1.58-1.26,3.1,3.1,0,0,0-.76-.09A3.38,3.38,0,0,0,41,24l-.16.23a2.24,2.24,0,0,1-.06-.52,1.41,1.41,0,0,0-.18-.77l0,0h0a5.27,5.27,0,0,0-.87-.07,3.51,3.51,0,0,0-.92.11l0,0,0,0a2.09,2.09,0,0,0-.08,1c.13,1.37.12,2.77.12,4.13v2.56a1.82,1.82,0,0,0,.08.64.55.55,0,0,0,.59.46h0c.33,0,.66,0,1-.06l.39,0h.05l0,0a.91.91,0,0,0,.12-.55V28.34a9.25,9.25,0,0,1,.32-2.43,2.38,2.38,0,0,1,.54-1,1.28,1.28,0,0,1,.92-.38,1.2,1.2,0,0,1,1,.49,2.55,2.55,0,0,1,.41.93,13.25,13.25,0,0,1,.16,4v.12a1.28,1.28,0,0,0,0,.19,8.13,8.13,0,0,0,0,1.31v.06l.06,0a3.2,3.2,0,0,0,1,.19,2.21,2.21,0,0,0,.92-.2h0v0a.94.94,0,0,0,.09-.52V27.84a7.61,7.61,0,0,1,.07-1.26A3.53,3.53,0,0,1,47,25.1a1.29,1.29,0,0,1,.9-.62l.28,0a1.32,1.32,0,0,1,1.35,1,4.68,4.68,0,0,1,.17,1.71,37.41,37.41,0,0,0-.07,3.9v.08a.76.76,0,0,0,.14.53l0,0h.05l.36,0,.67,0a4,4,0,0,0,.72,0h0l0,0a1.48,1.48,0,0,0,.23-.83v-.43a10.57,10.57,0,0,1,0-1.13,20.73,20.73,0,0,0,.06-3.2,4.44,4.44,0,0,0-.64-2.23,2.27,2.27,0,0,0-1.42-1,3.51,3.51,0,0,0-.87-.11Z"/><path class="cls-2" d="M57.92,22.7a4.09,4.09,0,0,0-3.71,2,5.33,5.33,0,0,0-.31,4.68,3.64,3.64,0,0,0,2.15,2.14,5.43,5.43,0,0,0,2.07.42,5.35,5.35,0,0,0,1.05-.11,3.19,3.19,0,0,0,2.53-2v0a.39.39,0,0,0,0-.41l0,0h0l-.23-.07a5.08,5.08,0,0,0-.59-.16l-.26-.08A1.62,1.62,0,0,0,60,29h-.1l0,0a.71.71,0,0,0-.21.33.52.52,0,0,1-.06.13,1.43,1.43,0,0,1-1.26.83,1.88,1.88,0,0,1-.82-.21,3.14,3.14,0,0,1-1.63-1.75,1,1,0,0,1-.09-.61h5.9l0,0a.94.94,0,0,0,.15-.62V27a7.76,7.76,0,0,0-.45-2.25v-.06a2.57,2.57,0,0,0-1.38-1.52,3.75,3.75,0,0,0-1.25-.4,5.39,5.39,0,0,0-.88-.07Zm-2.07,3.6a1.29,1.29,0,0,1,.17-.6,2.25,2.25,0,0,1,2-1.26,2.58,2.58,0,0,1,.38,0,1.52,1.52,0,0,1,1,.66,1.37,1.37,0,0,1,.17,1.16Z"/><path class="cls-2" d="M31.66,22.66l-.45,0A3.76,3.76,0,0,0,28,24.49a4.68,4.68,0,0,0-.65,2.12c0,.1,0,.2,0,.3a5,5,0,0,0,.08,1.67,4.59,4.59,0,0,0,3.37,3.29,4,4,0,0,0,1,.14,2.27,2.27,0,0,0,2.07-1.29l.06-.1a.37.37,0,0,1,0-.11l0,.1c0,.22.06.43.1.64,0,.37.19.48.6.5h1.1a.69.69,0,0,0,.5-.2l0,0v0a4.31,4.31,0,0,0,.05-1,1.93,1.93,0,0,1,0-.24c0-.34,0-.69-.06-1s-.07-.82-.07-1.24c0-1,0-2,0-3V23.63a.82.82,0,0,0-.26-.72l0,0h0a4.75,4.75,0,0,0-.54,0,4.82,4.82,0,0,0-.65,0h-.06l0,0a3.13,3.13,0,0,0-.19.36,1.92,1.92,0,0,1-.33.55.44.44,0,0,1-.09-.11,2.43,2.43,0,0,0-1.51-1,3.5,3.5,0,0,0-.89-.11Zm.24,7.57a2.29,2.29,0,0,1-2-1.32,4.47,4.47,0,0,1-.3-1.27,4.23,4.23,0,0,1,.29-2A2.11,2.11,0,0,1,31,24.52a2.28,2.28,0,0,1,1-.22,2.1,2.1,0,0,1,2,1.4,2.18,2.18,0,0,1,.11.72v.81a2.26,2.26,0,0,0,0,.26,4.24,4.24,0,0,1-.11,1.23,2,2,0,0,1-1.6,1.47,1.67,1.67,0,0,1-.39,0Z"/><path class="cls-2" d="M67.22,22.58a5.25,5.25,0,0,0-2.65.72,3.5,3.5,0,0,0-1.06.91,2.05,2.05,0,0,0-.28,1.87,2.3,2.3,0,0,0,1.33,1.47,10.17,10.17,0,0,0,1.16.35L66,28a12,12,0,0,1,1.18.31,2,2,0,0,1,.81.43,1,1,0,0,1,.34.89.92.92,0,0,1-.54.63,2.14,2.14,0,0,1-.95.21,2,2,0,0,1-1.87-1l0,0a.41.41,0,0,0-.27-.29l0,0h0l-.22.05-.61.15-.26.08c-.47.18-.6.42-.49.87a1.7,1.7,0,0,0,.15.33,2.41,2.41,0,0,0,1.3,1.09A4.56,4.56,0,0,0,66.3,32a7.15,7.15,0,0,0,.78,0,5.34,5.34,0,0,0,2.7-1,1.93,1.93,0,0,0,.86-2.23,2.13,2.13,0,0,0-1.34-1.55L68.9,27c-.22-.08-.44-.17-.67-.24l-.3-.11c-.51-.18-1-.36-1.52-.59a2.73,2.73,0,0,1-.66-.42.65.65,0,0,1-.08-1,1.4,1.4,0,0,1,1.07-.46,1.83,1.83,0,0,1,.61.11,1.61,1.61,0,0,1,1,1.06l0,.07h.29a6.63,6.63,0,0,0,1.68-.28l.08,0v-.07a2.43,2.43,0,0,0-1.88-2.33,5.64,5.64,0,0,0-1.34-.16Z"/><path class="cls-2" d="M25.55,26.14a.36.36,0,0,0,0-.1h0v0a.31.31,0,0,0-.06-.22l0,0h0c-.16,0-2.06-.09-4.11-.1-.11,0-.22,0-.27.12A.64.64,0,0,0,21,26l0,.79a1.17,1.17,0,0,0,.05.37.39.39,0,0,0,.22.15,8.64,8.64,0,0,0,1.32.05H23a2.43,2.43,0,0,1,.49.06A2.69,2.69,0,0,1,22.64,29a2.91,2.91,0,0,1-1.65.72,2.56,2.56,0,0,1-.47,0A3.37,3.37,0,0,1,17.76,28a4.71,4.71,0,0,1-.48-1.83,5.13,5.13,0,0,1,.26-1.93,3.55,3.55,0,0,1,1.86-2.05,3.85,3.85,0,0,1,1.33-.27,3.14,3.14,0,0,1,2.17,1.2c.06.11.18.26.21.33l.1.06h.08a1.29,1.29,0,0,0,.51-.14l.47-.15.43-.16a3.64,3.64,0,0,0,.41-.21.16.16,0,0,0,0-.2l-.06-.16A4.08,4.08,0,0,0,22,20.09,6.29,6.29,0,0,0,20.74,20a6.45,6.45,0,0,0-2.54.54,4.56,4.56,0,0,0-2.64,2.73,7.1,7.1,0,0,0,.38,6,5,5,0,0,0,4.55,2.62,6.77,6.77,0,0,0,1.09-.09,4,4,0,0,0,1.66-.7,4.48,4.48,0,0,0,.78-.83h0c0,.19-.1.72-.1.92s0,.17,0,.28a.16.16,0,0,0,0,.07s0,0,0,0v0h0a4,4,0,0,0,.65.08l.43,0c.11,0,.16,0,.27,0h0a.22.22,0,0,0,.12-.22h0C25.64,29.08,25.55,27.69,25.55,26.14Z"/></svg>