<svg id="Layer_2" data-name="Layer 2" xmlns="http://www.w3.org/2000/svg" viewBox="0 0 76 100"><defs><style>.cls-1{fill:#fff;}.cls-2{fill:#757976;}</style></defs><title>AD</title><path class="cls-1" d="M47.76,73.05h0a3.16,3.16,0,0,0-2.82,1.51l0,.08a.36.36,0,0,1-.06.11v0c0-.11-.08-.21-.13-.32a2.29,2.29,0,0,0-1.58-1.26,3.08,3.08,0,0,0-.75-.09,3.36,3.36,0,0,0-2.74,1.34l-.16.23a1.85,1.85,0,0,1-.06-.52,1.34,1.34,0,0,0-.19-.77l0,0h-.05a6.36,6.36,0,0,0-.86-.07,3.14,3.14,0,0,0-.93.12h0l0,0a2,2,0,0,0-.08,1c.12,1.38.12,2.78.11,4.13v2.57a2.12,2.12,0,0,0,.08.64.57.57,0,0,0,.59.46h0c.33,0,.66,0,1-.07l.39,0h.06l0,0a.85.85,0,0,0,.12-.55V78.69a9.18,9.18,0,0,1,.32-2.42,2.44,2.44,0,0,1,.55-1,1.25,1.25,0,0,1,.92-.38,1.2,1.2,0,0,1,1,.48,2.7,2.7,0,0,1,.41.94,13.18,13.18,0,0,1,.15,4v.13a1.28,1.28,0,0,1,0,.19,7.14,7.14,0,0,0,0,1.31V82L43,82a3.45,3.45,0,0,0,1,.18,2.24,2.24,0,0,0,.93-.19l0,0,0,0a1,1,0,0,0,.09-.51V78.19a7.49,7.49,0,0,1,.07-1.25,3.56,3.56,0,0,1,.54-1.49,1.28,1.28,0,0,1,.9-.62l.27,0a1.33,1.33,0,0,1,1.35,1,4.5,4.5,0,0,1,.18,1.71c-.11,1.4-.1,2.76-.08,3.91v.07a.8.8,0,0,0,.14.53l0,0h.41c.22,0,.45,0,.68,0a3.84,3.84,0,0,0,.71-.06h0l0,0a1.72,1.72,0,0,0,.23-.84v-.43a10.67,10.67,0,0,1,0-1.13,20.79,20.79,0,0,0,0-3.2A4.44,4.44,0,0,0,50,74.17a2.29,2.29,0,0,0-1.41-1,3.57,3.57,0,0,0-.87-.1Z"/><path class="cls-1" d="M56.76,73.05a4.1,4.1,0,0,0-3.71,2,5.33,5.33,0,0,0-.31,4.68,3.65,3.65,0,0,0,2.15,2.13,5.45,5.45,0,0,0,2.07.43,5.35,5.35,0,0,0,1-.11,3.2,3.2,0,0,0,2.53-2v0a.4.4,0,0,0,0-.42l0,0h0l-.23-.07-.59-.16-.27-.08a1.78,1.78,0,0,0-.53-.11h-.1l0,0a.82.82,0,0,0-.21.33.59.59,0,0,1-.06.14,1.42,1.42,0,0,1-1.26.82,1.86,1.86,0,0,1-.82-.2,3.13,3.13,0,0,1-1.63-1.76,1,1,0,0,1-.09-.6h5.9l0,0a.91.91,0,0,0,.15-.61v-.08a7.82,7.82,0,0,0-.45-2.25v0a2.51,2.51,0,0,0-1.38-1.52,3.83,3.83,0,0,0-1.25-.41,5.39,5.39,0,0,0-.88-.07Zm-2.07,3.6a1.33,1.33,0,0,1,.17-.6,2.26,2.26,0,0,1,2-1.25l.38,0a1.52,1.52,0,0,1,1,.66,1.37,1.37,0,0,1,.17,1.16Z"/><path class="cls-2" d="M47.76,22.74h0a3.16,3.16,0,0,0-2.82,1.51l0,.08a.36.36,0,0,1-.06.11v0c0-.1-.08-.21-.13-.31a2.29,2.29,0,0,0-1.58-1.26,3.08,3.08,0,0,0-.75-.09,3.36,3.36,0,0,0-2.74,1.34l-.16.22a1.78,1.78,0,0,1-.06-.51,1.39,1.39,0,0,0-.19-.78l0,0h-.05a5.07,5.07,0,0,0-.86-.07,3.54,3.54,0,0,0-.93.11l0,0,0,0a2,2,0,0,0-.08,1c.12,1.37.12,2.77.11,4.13v2.57a2.16,2.16,0,0,0,.08.64.56.56,0,0,0,.59.45h0c.33,0,.66,0,1-.06l.39,0h.06l0,0a.81.81,0,0,0,.12-.54V28.38A9.18,9.18,0,0,1,39.92,26a2.44,2.44,0,0,1,.55-1,1.26,1.26,0,0,1,.92-.39,1.21,1.21,0,0,1,1,.49,2.73,2.73,0,0,1,.41.93,13.25,13.25,0,0,1,.15,4v.13a1.28,1.28,0,0,1,0,.19,7,7,0,0,0,0,1.3v.07l.06,0a3.45,3.45,0,0,0,1,.18,2.24,2.24,0,0,0,.93-.19l0,0,0,0a1,1,0,0,0,.09-.52V27.88a7.67,7.67,0,0,1,.07-1.26,3.58,3.58,0,0,1,.54-1.48,1.28,1.28,0,0,1,.9-.62l.27,0a1.33,1.33,0,0,1,1.35,1,4.5,4.5,0,0,1,.18,1.71c-.11,1.4-.1,2.76-.08,3.91v.07a.8.8,0,0,0,.14.53l0,0h.06l.35,0c.22,0,.45,0,.68,0a3.84,3.84,0,0,0,.71-.06h0l0,0a1.66,1.66,0,0,0,.23-.83v-.43a10.67,10.67,0,0,1,0-1.13,20.82,20.82,0,0,0,0-3.2A4.44,4.44,0,0,0,50,23.86a2.25,2.25,0,0,0-1.41-1,3.57,3.57,0,0,0-.87-.1Z"/><path class="cls-2" d="M56.76,22.74a4.08,4.08,0,0,0-3.71,2.05,5.33,5.33,0,0,0-.31,4.68,3.65,3.65,0,0,0,2.15,2.13A5.43,5.43,0,0,0,57,32a4.68,4.68,0,0,0,1-.11,3.17,3.17,0,0,0,2.53-2h0a.4.4,0,0,0,0-.42l0,0h0l-.23-.07-.59-.16-.27-.08a1.78,1.78,0,0,0-.53-.11h-.1l0,0a.82.82,0,0,0-.21.33.52.52,0,0,1-.06.13,1.41,1.41,0,0,1-1.26.83,2,2,0,0,1-.82-.2,3.19,3.19,0,0,1-1.63-1.76,1,1,0,0,1-.09-.6l1.86,0h4l0-.05a.93.93,0,0,0,.15-.62V27a7.82,7.82,0,0,0-.45-2.25v-.05a2.56,2.56,0,0,0-1.38-1.53,3.82,3.82,0,0,0-1.25-.4,5.39,5.39,0,0,0-.88-.07Zm-2.07,3.6a1.33,1.33,0,0,1,.17-.6,2.26,2.26,0,0,1,2-1.25l.38,0a1.52,1.52,0,0,1,1,.66,1.37,1.37,0,0,1,.17,1.16Z"/><path class="cls-1" d="M24.44,76.63c0,1.5,0,3,0,4.49,0,.53.05.9-.14,1.07s-.36.17-.87.18a5.83,5.83,0,0,1-1.11,0c-.14-.06-.1-.8-.05-1.38s0-1.34,0-2,0-1.68,0-1.68l-2.85,0c-.64,0-2.37.08-2.37.08A5.84,5.84,0,0,0,17,78.77c.1.83,0,1.67,0,2.5a1.52,1.52,0,0,1-.16.94c-.18.22-.09.13-.55.14a4.21,4.21,0,0,1-1.23-.06,2.69,2.69,0,0,1-.08-.94q0-5,0-10c0-.62.27-1,.78-1a4,4,0,0,1,1.14,0A21.86,21.86,0,0,1,17,74c0,.41,0,1.07,0,1.07l.49,0c2.43,0,4.72-.1,4.72-.1s0-1.17.05-1.84-.05-1.34,0-2c0-.33,0-.53.09-.65s.69-.14,1.11-.14.62-.06.87.17,0,.31,0,.62C24.49,73,24.44,74.8,24.44,76.63Z"/><path class="cls-1" d="M31.48,73.05c-3.17-.09-4.83,1.52-4.83,4.69,0,2.86,1.66,4.58,4.43,4.6s4.4-1.68,4.57-5A4.12,4.12,0,0,0,31.48,73.05Zm0,7.54a2.54,2.54,0,0,1-2.9-2.86c0-1.82.94-2.87,2.58-2.9a2.66,2.66,0,0,1,2.75,2.71A2.9,2.9,0,0,1,31.46,80.59Z"/><path class="cls-2" d="M24.44,26.32c0,1.5,0,3,0,4.49,0,.53.05.9-.14,1.07s-.36.17-.87.18a4.88,4.88,0,0,1-1.11,0c-.14-.05-.1-.79-.05-1.37s0-1.34,0-2,0-1.67,0-1.67l-2.85,0c-.64,0-2.37.08-2.37.08A5.84,5.84,0,0,0,17,28.46c.1.82,0,1.66,0,2.5a1.52,1.52,0,0,1-.16.94c-.18.22-.09.12-.55.13A4,4,0,0,1,15.08,32,2.69,2.69,0,0,1,15,31q0-5,0-10c0-.62.27-1,.78-1a4,4,0,0,1,1.14.05A21.86,21.86,0,0,1,17,23.68c0,.41,0,1.06,0,1.06s.31,0,.49,0c2.43,0,4.72-.1,4.72-.1s0-1.17.05-1.85-.05-1.33,0-2c0-.34,0-.53.09-.65s.69-.15,1.11-.15.62-.06.87.18,0,.31,0,.62C24.49,22.66,24.44,24.49,24.44,26.32Z"/><path class="cls-2" d="M31.48,22.74c-3.17-.1-4.83,1.51-4.83,4.69,0,2.86,1.66,4.57,4.43,4.59s4.4-1.67,4.57-4.94A4.11,4.11,0,0,0,31.48,22.74Zm0,7.54a2.54,2.54,0,0,1-2.9-2.87c0-1.81.94-2.86,2.58-2.89a2.65,2.65,0,0,1,2.75,2.71A2.9,2.9,0,0,1,31.46,30.28Z"/></svg>