<svg id="Layer_2" data-name="Layer 2" xmlns="http://www.w3.org/2000/svg" viewBox="0 0 78 100"><defs><style>.cls-1{fill:#fff;}.cls-2{fill:#757976;}</style></defs><title>AD</title><path class="cls-1" d="M33.36,73.05a4.09,4.09,0,0,0-3.7,2,5.33,5.33,0,0,0-.31,4.68,3.66,3.66,0,0,0,2.14,2.13,5.53,5.53,0,0,0,2.08.43,5.17,5.17,0,0,0,1-.11,3.2,3.2,0,0,0,2.54-2v0a.4.4,0,0,0,0-.42l0,0h0l-.22-.07-.59-.16L36,79.46a1.85,1.85,0,0,0-.53-.11h-.11l0,0a.82.82,0,0,0-.21.33l-.06.14a1.42,1.42,0,0,1-1.26.82,1.83,1.83,0,0,1-.82-.2,3.1,3.1,0,0,1-1.63-1.76,1,1,0,0,1-.09-.6h5.89l0,0a.93.93,0,0,0,.16-.61v-.08a8.18,8.18,0,0,0-.45-2.25v0a2.58,2.58,0,0,0-1.38-1.52,3.89,3.89,0,0,0-1.26-.41,5.22,5.22,0,0,0-.88-.07Zm-2.06,3.6a1.33,1.33,0,0,1,.17-.6,2.26,2.26,0,0,1,2-1.25,2.31,2.31,0,0,1,.37,0,1.54,1.54,0,0,1,1,.66,1.37,1.37,0,0,1,.17,1.16Z"/><path class="cls-1" d="M60.07,73.05v0h0a3.15,3.15,0,0,0-2.09.8,3,3,0,0,0-.65.82,2,2,0,0,1-.06-.43,1.85,1.85,0,0,0,0-.23c0-.24,0-4.51-.1-4.63s-.4-.06-.62-.1a2.6,2.6,0,0,0-.5,0l-.47,0a.42.42,0,0,0-.33.23h0v.09s0,4.1,0,4.16V76c0,.75,0,1.51,0,2.26v3.22a.57.57,0,0,0,.24.58l0,0h.28l.68,0a7.25,7.25,0,0,0,.86,0h0l0,0c.12-.17.05-.31.05-.46v-.1a13.25,13.25,0,0,0-.05-1.67c0-.42,0-.87,0-1.3A6.52,6.52,0,0,1,57.74,76a1.74,1.74,0,0,1,.57-.79,1.82,1.82,0,0,1,1.08-.36,1.32,1.32,0,0,1,1.28.85,2.77,2.77,0,0,1,.19.62,12.62,12.62,0,0,1,.22,2.86v.15c0,.76-.06,1.55,0,2.33a.45.45,0,0,0,.15.38h0a4.56,4.56,0,0,0,1,.08,2.28,2.28,0,0,0,.84-.16l.06,0v0a.22.22,0,0,1,0-.09c0-.06,0-.12,0-.18a46.54,46.54,0,0,0,0-5.94,2.17,2.17,0,0,0-.06-.54,2.67,2.67,0,0,0-2-2,3.63,3.63,0,0,0-1-.13Z"/><path class="cls-1" d="M44.39,73.17a5.06,5.06,0,0,0-.53-.06h0a3.13,3.13,0,0,0-2.09.8,3,3,0,0,0-.65.82,1.52,1.52,0,0,1-.06-.42,1.93,1.93,0,0,0,0-.24,2.63,2.63,0,0,0-.13-.56c-.08-.26-.35-.12-.59-.17a2.6,2.6,0,0,0-.5,0l-.47,0a.44.44,0,0,0-.34.23h0v.09a.81.81,0,0,0,0,.16V76c0,.75,0,1.51,0,2.26V81.5a.57.57,0,0,0,.24.58l0,0h.28l.68,0a4.73,4.73,0,0,0,.71,0H41l0,0a.75.75,0,0,0,.12-.48.17.17,0,0,1,0-.1,10,10,0,0,0,0-1.35c0-.42.06-1.17.06-1.6a6.74,6.74,0,0,1,.37-2.44,1.8,1.8,0,0,1,.56-.79,3.38,3.38,0,0,1,1.19-.58,4.14,4.14,0,0,1,1.11,0Z"/><path class="cls-1" d="M52,79.21a.11.11,0,0,0-.06.09,1.57,1.57,0,0,1-.29.52,1.81,1.81,0,0,1-1.08.66l-.38,0a2.26,2.26,0,0,1-2-1.25c0-.06,0-.13-.08-.19h0a3.22,3.22,0,0,1-.25-1.19,7.14,7.14,0,0,1,.12-1h0a1.7,1.7,0,0,1,.1-.32,3,3,0,0,1,1.5-1.77,2.54,2.54,0,0,1,.94-.19,1.41,1.41,0,0,1,1.26.83.31.31,0,0,1,.06.13,1,1,0,0,0,.21.33l0,0h.1a1.92,1.92,0,0,0,.54-.11l.26-.08.59-.16.23-.07h0l0,0a.4.4,0,0,0,0-.42h0a3.17,3.17,0,0,0-2.53-2,4.68,4.68,0,0,0-1-.11,5.47,5.47,0,0,0-2.07.42,3.65,3.65,0,0,0-2.15,2.13,5.36,5.36,0,0,0,.31,4.68,4.1,4.1,0,0,0,3.71,2.05,5.39,5.39,0,0,0,.88-.07,3.88,3.88,0,0,0,1.26-.4,3.11,3.11,0,0,0,1.49-1.44c.14-.35.17-.43.21-.56a.19.19,0,0,0,0-.13s-.15-.06-.15-.06l-1.59-.39S52,79.18,52,79.21Z"/><path class="cls-2" d="M33.36,22.78a4.09,4.09,0,0,0-3.7,2,5.35,5.35,0,0,0-.31,4.69,3.66,3.66,0,0,0,2.14,2.13,5.52,5.52,0,0,0,2.08.42,4.54,4.54,0,0,0,1-.11,3.17,3.17,0,0,0,2.54-2v0a.39.39,0,0,0,0-.41l0,0h0l-.22-.07a5.69,5.69,0,0,0-.59-.16L36,29.19a1.85,1.85,0,0,0-.53-.11h-.11l0,0a.76.76,0,0,0-.21.33l-.06.13a1.41,1.41,0,0,1-1.26.83,2,2,0,0,1-.82-.2,3.16,3.16,0,0,1-1.63-1.76,1,1,0,0,1-.09-.6l1.86,0h4l0,0a.94.94,0,0,0,.16-.62v-.07a8.1,8.1,0,0,0-.45-2.25v-.06a2.63,2.63,0,0,0-1.38-1.52,3.88,3.88,0,0,0-1.26-.4,5.22,5.22,0,0,0-.88-.07Zm-2.06,3.6a1.33,1.33,0,0,1,.17-.6,2.24,2.24,0,0,1,2-1.25,2.31,2.31,0,0,1,.37,0,1.54,1.54,0,0,1,1,.66,1.37,1.37,0,0,1,.17,1.16Z"/><path class="cls-2" d="M60.07,22.78v0h0a3.15,3.15,0,0,0-2.09.8,3,3,0,0,0-.65.82,2,2,0,0,1-.06-.43,1.85,1.85,0,0,0,0-.23c0-.24,0-4.51-.1-4.63s-.4-.06-.62-.1a2.6,2.6,0,0,0-.5,0l-.47,0a.43.43,0,0,0-.33.22l0,0v.08c0,.05,0,4.11,0,4.17v2.21c0,.75,0,1.5,0,2.26v3.22a.57.57,0,0,0,.24.58l0,0h1a7.42,7.42,0,0,0,.86,0h0l0,0c.12-.17.05-.32.05-.46v-.11a13.1,13.1,0,0,0-.05-1.66c0-.42,0-.87,0-1.3a6.6,6.6,0,0,1,.36-2.45,1.77,1.77,0,0,1,.57-.78,1.83,1.83,0,0,1,1.08-.37,1.33,1.33,0,0,1,1.28.86,2.77,2.77,0,0,1,.19.62,12.62,12.62,0,0,1,.22,2.86v.15c0,.76-.06,1.55,0,2.33a.42.42,0,0,0,.15.37l0,0h0a4.56,4.56,0,0,0,1,.08,2.1,2.1,0,0,0,.84-.17l.06,0v-.06a.28.28,0,0,1,0-.09c0-.06,0-.11,0-.17a46.54,46.54,0,0,0,0-5.94,2.12,2.12,0,0,0-.06-.54,2.67,2.67,0,0,0-2-2,3.63,3.63,0,0,0-1-.13Z"/><path class="cls-2" d="M44.39,22.9a3.31,3.31,0,0,0-.53-.06h0a3.13,3.13,0,0,0-2.09.8,3,3,0,0,0-.65.82,1.54,1.54,0,0,1-.06-.43,1.85,1.85,0,0,0,0-.23,2.5,2.5,0,0,0-.13-.56c-.08-.26-.35-.13-.59-.17a2.6,2.6,0,0,0-.5,0l-.47,0a.45.45,0,0,0-.34.22v.1a.91.91,0,0,0,0,.17v2.21c0,.75,0,1.5,0,2.26v3.22a.57.57,0,0,0,.24.58l0,0h1a4.87,4.87,0,0,0,.71,0H41l0,0a.76.76,0,0,0,.12-.48.21.21,0,0,1,0-.11,10.15,10.15,0,0,0,0-1.35c0-.42.06-1.16.06-1.59a6.83,6.83,0,0,1,.37-2.45,1.83,1.83,0,0,1,.56-.78,3.38,3.38,0,0,1,1.19-.58,4,4,0,0,1,1.11,0Z"/><path class="cls-2" d="M52,28.94s-.06,0-.06.08a1.52,1.52,0,0,1-.29.53,1.86,1.86,0,0,1-1.08.66l-.38,0a2.26,2.26,0,0,1-2-1.25c0-.07,0-.13-.08-.19h0a3.29,3.29,0,0,1-.25-1.19,7.14,7.14,0,0,1,.12-1h0a2.07,2.07,0,0,1,.1-.33,2.91,2.91,0,0,1,1.5-1.76,2.38,2.38,0,0,1,.94-.2,1.43,1.43,0,0,1,1.26.83.35.35,0,0,1,.06.14,1,1,0,0,0,.21.33l0,0h.1a1.92,1.92,0,0,0,.54-.11L53,25.5l.59-.16.23-.07h0l0,0a.4.4,0,0,0,0-.42v0a3.2,3.2,0,0,0-2.53-2,5.35,5.35,0,0,0-1-.11,5.48,5.48,0,0,0-2.07.43,3.65,3.65,0,0,0-2.15,2.13,5.36,5.36,0,0,0,.31,4.68,4.12,4.12,0,0,0,3.71,2,5.39,5.39,0,0,0,.88-.07,3.89,3.89,0,0,0,1.26-.41,3.07,3.07,0,0,0,1.49-1.44,4.7,4.7,0,0,0,.21-.56.17.17,0,0,0,0-.12s-.15-.07-.15-.07l-1.59-.38S52,28.91,52,28.94Z"/><path class="cls-1" d="M26.44,81.9a.34.34,0,0,1-.3.2H24.73a.29.29,0,0,1-.28-.16.69.69,0,0,1-.12-.5c0-1.77,0-2.52,0-4.63,0-.14.08-2.15-.11-1.82a5.19,5.19,0,0,0-.31.5c-.82,1.4-2.06,3.42-2.56,3.6a1.66,1.66,0,0,1-.38.11c-.19,0-.29,0-.42-.15a13.27,13.27,0,0,1-1.11-1.28c-.74-1.1-1-1.45-1.78-2.63-.05-.06-.09-.13-.14-.2a.59.59,0,0,0-.06.32c0,2.1,0,4.37,0,6.14,0,.24-.06.49-.15.54a.5.5,0,0,1-.35.16H15.68c-.07,0-.17-.11-.17-.11a2.65,2.65,0,0,1-.06-.41c0-3.25,0-6.18,0-9.58a1.13,1.13,0,0,1,.08-.45.57.57,0,0,1,.32-.3,3.36,3.36,0,0,1,1.84.09,1.12,1.12,0,0,1,.3.2,2.16,2.16,0,0,1,.27.38c.86,1.2,1.59,3.15,2.74,4.32,0,0,.1.09.24-.13,1.05-1.59,3-4.86,3.52-4.88a5.63,5.63,0,0,1,1.3,0,.52.52,0,0,1,.33.22.77.77,0,0,1,.05.42c0,3,.1,6.21.11,9.34A1.76,1.76,0,0,1,26.44,81.9Z"/><path class="cls-2" d="M26.44,31.63a.34.34,0,0,1-.3.2H24.73a.29.29,0,0,1-.28-.16.71.71,0,0,1-.12-.5c0-1.77,0-2.52,0-4.63,0-.14.08-2.15-.11-1.82a5,5,0,0,0-.31.49c-.82,1.41-2.06,3.42-2.56,3.61a1.64,1.64,0,0,1-.38.1c-.19,0-.29,0-.42-.14a13.27,13.27,0,0,1-1.11-1.28c-.74-1.11-1-1.45-1.78-2.63l-.14-.2a.57.57,0,0,0-.06.32c0,2.1,0,4.37,0,6.14,0,.24-.06.48-.15.54a.5.5,0,0,1-.35.16H15.68c-.07,0-.17-.12-.17-.12a2.46,2.46,0,0,1-.06-.4c0-3.26,0-6.19,0-9.58a1.2,1.2,0,0,1,.08-.46.55.55,0,0,1,.32-.29,3.18,3.18,0,0,1,1.84.09,1.12,1.12,0,0,1,.3.2,2.16,2.16,0,0,1,.27.38C19.1,22.85,19.83,24.8,21,26c0,0,.1.09.24-.13,1.05-1.59,3-4.86,3.52-4.88A5.63,5.63,0,0,1,26,21a.48.48,0,0,1,.33.22.77.77,0,0,1,.05.42c0,3,.1,6.21.11,9.34A1.79,1.79,0,0,1,26.44,31.63Z"/></svg>